<svg xmlns="http://www.w3.org/2000/svg" viewBox="0 0 1000 520"><rect width="1000" height="520" rx="28" fill="#0b1726"/><g font-family="Arial,sans-serif"><text x="500" y="42" text-anchor="middle" fill="#f2c94c" font-size="23" font-weight="700">Калібрування: спостереження та підігнана траєкторія</text><line x1="100" y1="420" x2="910" y2="420" stroke="#9fb3c8"/><line x1="100" y1="90" x2="100" y2="420" stroke="#9fb3c8"/><path d="M115 385 C210 305 320 240 440 195 C575 145 720 118 890 105" fill="none" stroke="#70b7ff" stroke-width="5"/><circle cx="120" cy="382" r="7" fill="#f2c94c"/><circle cx="195" cy="327" r="7" fill="#f2c94c"/><circle cx="275" cy="290" r="7" fill="#f2c94c"/><circle cx="350" cy="235" r="7" fill="#f2c94c"/><circle cx="430" cy="205" r="7" fill="#f2c94c"/><circle cx="510" cy="188" r="7" fill="#f2c94c"/><circle cx="590" cy="166" r="7" fill="#f2c94c"/><circle cx="670" cy="145" r="7" fill="#f2c94c"/><circle cx="750" cy="132" r="7" fill="#f2c94c"/><circle cx="830" cy="120" r="7" fill="#f2c94c"/><circle cx="890" cy="108" r="7" fill="#f2c94c"/><text x="650" y="365" fill="#eaf2f8" font-size="16">q̂=11.9159 · k̂=0.09859</text><text x="650" y="395" fill="#9fb3c8" font-size="15">RMSE ≈ 1.4822</text></g></svg>