<svg xmlns="http://www.w3.org/2000/svg" viewBox="0 0 1000 520"><rect width="1000" height="520" rx="28" fill="#0b1726"/><g font-family="Arial,sans-serif"><text x="500" y="42" text-anchor="middle" fill="#f2c94c" font-size="23" font-weight="700">Дослідницький цикл T2.L7</text><rect x="45" y="110" width="170" height="70" rx="16" fill="#12283d" stroke="#70b7ff" stroke-width="2"/><text x="130" y="151" text-anchor="middle" fill="#eaf2f8" font-size="18" font-weight="700">Питання</text><line x1="215" y1="145" x2="255" y2="145" stroke="#f2c94c" stroke-width="4"/><path d="M 243 137 L 255 145 L 243 153" fill="none" stroke="#f2c94c" stroke-width="4"/><rect x="255" y="110" width="150" height="70" rx="16" fill="#12283d" stroke="#70b7ff" stroke-width="2"/><text x="330" y="151" text-anchor="middle" fill="#eaf2f8" font-size="18" font-weight="700">Дані</text><line x1="405" y1="145" x2="445" y2="145" stroke="#f2c94c" stroke-width="4"/><path d="M 433 137 L 445 145 L 433 153" fill="none" stroke="#f2c94c" stroke-width="4"/><rect x="445" y="110" width="170" height="70" rx="16" fill="#12283d" stroke="#70b7ff" stroke-width="2"/><text x="530" y="151" text-anchor="middle" fill="#eaf2f8" font-size="18" font-weight="700">Калібрування</text><line x1="615" y1="145" x2="655" y2="145" stroke="#f2c94c" stroke-width="4"/><path d="M 643 137 L 655 145 L 643 153" fill="none" stroke="#f2c94c" stroke-width="4"/><rect x="655" y="110" width="180" height="70" rx="16" fill="#12283d" stroke="#70b7ff" stroke-width="2"/><text x="745" y="151" text-anchor="middle" fill="#eaf2f8" font-size="18" font-weight="700">Перевірка</text><line x1="745" y1="180" x2="745" y2="245" stroke="#f2c94c" stroke-width="4"/><path d="M 733 237 L 745 245 L 733 253" fill="none" stroke="#f2c94c" stroke-width="4"/><rect x="655" y="245" width="180" height="70" rx="16" fill="#12283d" stroke="#70b7ff" stroke-width="2"/><text x="745" y="286" text-anchor="middle" fill="#eaf2f8" font-size="18" font-weight="700">Чутливість</text><line x1="655" y1="280" x2="615" y2="280" stroke="#f2c94c" stroke-width="4"/><path d="M 603 272 L 615 280 L 603 288" fill="none" stroke="#f2c94c" stroke-width="4"/><rect x="445" y="245" width="170" height="70" rx="16" fill="#12283d" stroke="#70b7ff" stroke-width="2"/><text x="530" y="286" text-anchor="middle" fill="#eaf2f8" font-size="18" font-weight="700">Невизначеність</text><line x1="445" y1="280" x2="405" y2="280" stroke="#f2c94c" stroke-width="4"/><path d="M 393 272 L 405 280 L 393 288" fill="none" stroke="#f2c94c" stroke-width="4"/><rect x="255" y="245" width="150" height="70" rx="16" fill="#12283d" stroke="#70b7ff" stroke-width="2"/><text x="330" y="286" text-anchor="middle" fill="#eaf2f8" font-size="18" font-weight="700">Метадані</text><line x1="255" y1="280" x2="215" y2="280" stroke="#f2c94c" stroke-width="4"/><path d="M 203 272 L 215 280 L 203 288" fill="none" stroke="#f2c94c" stroke-width="4"/><rect x="45" y="245" width="170" height="70" rx="16" fill="#12283d" stroke="#70b7ff" stroke-width="2"/><text x="130" y="286" text-anchor="middle" fill="#eaf2f8" font-size="18" font-weight="700">Висновок</text><text x="500" y="395" text-anchor="middle" fill="#eaf2f8" font-size="17">Крива підгонки — лише один елемент доказової системи.</text></g></svg>