<svg xmlns="http://www.w3.org/2000/svg" viewBox="0 0 1000 470"><rect width="1000" height="470" rx="28" fill="#0b1726"/><g font-family="Arial,sans-serif"><text x="500" y="42" text-anchor="middle" fill="#f2c94c" font-size="23" font-weight="700">Монте-Карло: розподіл можливих строків</text><line x1="100" y1="390" x2="900" y2="390" stroke="#9fb3c8" stroke-width="2"/><g fill="#70b7ff"><rect x="180" y="345" width="55" height="45"/><rect x="240" y="300" width="55" height="90"/><rect x="300" y="225" width="55" height="165"/><rect x="360" y="155" width="55" height="235"/><rect x="420" y="110" width="55" height="280"/><rect x="480" y="130" width="55" height="260"/><rect x="540" y="190" width="55" height="200"/><rect x="600" y="260" width="55" height="130"/><rect x="660" y="320" width="55" height="70"/><rect x="720" y="355" width="55" height="35"/></g><line x1="470" y1="80" x2="470" y2="400" stroke="#f2c94c" stroke-width="3" stroke-dasharray="8 5"/><line x1="650" y1="80" x2="650" y2="400" stroke="#ff9f6e" stroke-width="3" stroke-dasharray="8 5"/><text x="470" y="70" text-anchor="middle" fill="#f2c94c" font-size="14">mean ≈ 17.86</text><text x="650" y="70" text-anchor="middle" fill="#ff9f6e" font-size="14">P90 ≈ 19.69</text><text x="500" y="435" text-anchor="middle" fill="#9fb3c8" font-size="14">тривалість проєкту</text></g></svg>