<svg xmlns="http://www.w3.org/2000/svg" viewBox="0 0 1280 360"><rect width="1280" height="360" rx="28" fill="#0b1726"/><g font-family="Arial,sans-serif"><text x="640" y="42" text-anchor="middle" fill="#f2c94c" font-size="24" font-weight="700">Ланцюг відтворюваності</text><g fill="#14283e" stroke="#2a435b"><rect x="30" y="125" width="130" height="70" rx="14"/><rect x="180" y="125" width="110" height="70" rx="14"/><rect x="310" y="125" width="110" height="70" rx="14"/><rect x="440" y="125" width="110" height="70" rx="14"/><rect x="570" y="125" width="125" height="70" rx="14"/><rect x="715" y="125" width="115" height="70" rx="14"/><rect x="850" y="125" width="120" height="70" rx="14"/><rect x="990" y="125" width="110" height="70" rx="14"/><rect x="1120" y="125" width="130" height="70" rx="14"/></g><g fill="#edf4fb" text-anchor="middle" font-size="13" font-weight="700"><text x="95" y="166">Питання</text><text x="235" y="166">Дані</text><text x="365" y="166">Конфігурація</text><text x="495" y="166">Модель</text><text x="632" y="166">Експеримент</text><text x="772" y="166">Перевірка</text><text x="910" y="166">Результати</text><text x="1045" y="166">MetaДані</text><text x="1185" y="166">Git</text></g><g stroke="#f2c94c" stroke-width="2"><line x1="160" y1="160" x2="180" y2="160"/><line x1="290" y1="160" x2="310" y2="160"/><line x1="420" y1="160" x2="440" y2="160"/><line x1="550" y1="160" x2="570" y2="160"/><line x1="695" y1="160" x2="715" y2="160"/><line x1="830" y1="160" x2="850" y2="160"/><line x1="970" y1="160" x2="990" y2="160"/><line x1="1100" y1="160" x2="1120" y2="160"/></g><text x="640" y="290" text-anchor="middle" fill="#9fb3c8" font-size="15">Результат відтворюваний лише тоді, коли збережено повний ланцюг до вхідних даних і стану коду.</text></g></svg>