<svg xmlns="http://www.w3.org/2000/svg" viewBox="0 0 1000 500"><rect width="1000" height="500" rx="28" fill="#0b1726"/><g font-family="Arial,sans-serif"><text x="500" y="42" text-anchor="middle" fill="#f2c94c" font-size="23" font-weight="700">Чутливість: бюджет → Оптимальне Цільова функція</text><line x1="100" y1="410" x2="900" y2="410" stroke="#9fb3c8"/><line x1="100" y1="85" x2="100" y2="410" stroke="#9fb3c8"/><polyline points="140,355 225,310 310,270 395,235 480,205 565,175 650,150 735,125 820,105" fill="none" stroke="#70b7ff" stroke-width="4"/><g fill="#f2c94c"><circle cx="140" cy="355" r="6"/><circle cx="225" cy="310" r="6"/><circle cx="310" cy="270" r="6"/><circle cx="395" cy="235" r="6"/><circle cx="480" cy="205" r="7"/><circle cx="565" cy="175" r="6"/><circle cx="650" cy="150" r="6"/><circle cx="735" cy="125" r="6"/><circle cx="820" cy="105" r="6"/></g><g fill="#9fb3c8" font-size="12" text-anchor="middle"><text x="140" y="437">210</text><text x="310" y="437">230</text><text x="480" y="437">250</text><text x="650" y="437">270</text><text x="820" y="437">290</text></g><text x="500" y="475" text-anchor="middle" fill="#9fb3c8" font-size="14">total бюджет</text></g></svg>